<?xml version="1.0" encoding="UTF-8" standalone="no"?>
<!DOCTYPE svg PUBLIC "-//W3C//DTD SVG 1.1//EN"
 "http://www.w3.org/Graphics/SVG/1.1/DTD/svg11.dtd">
<!-- Generated by graphviz version 2.46.0 (20210118.1747)
 -->
<!-- Title: G Pages: 1 -->
<svg width="1395pt" height="1014pt"
 viewBox="0.00 0.00 1395.00 1014.00" xmlns="http://www.w3.org/2000/svg" xmlns:xlink="http://www.w3.org/1999/xlink">
<g id="graph0" class="graph" transform="scale(1 1) rotate(0) translate(36 978)">
<title>G</title>
<polygon fill="#f7f7f7" stroke="transparent" points="-36,36 -36,-978 1359,-978 1359,36 -36,36"/>
<!-- appmodelscomment -->
<g id="node1" class="node">
<title>appmodelscomment</title>
<polygon fill="none" stroke="black" points="141,-822 0,-822 0,-563 141,-563 141,-822"/>
<polygon fill="#d3d3d3" stroke="transparent" points="0.5,-784.5 0.5,-821.5 141.5,-821.5 141.5,-784.5 0.5,-784.5"/>
<polygon fill="none" stroke="black" points="0.5,-784.5 0.5,-821.5 141.5,-821.5 141.5,-784.5 0.5,-784.5"/>
<text text-anchor="start" x="42.5" y="-799.3" font-family="Helvetica Neue" font-size="14.00" fill="#333333">Comment</text>
<polygon fill="#ffffff" stroke="transparent" points="0.5,-747.5 0.5,-784.5 141.5,-784.5 141.5,-747.5 0.5,-747.5"/>
<polygon fill="none" stroke="black" points="0.5,-747.5 0.5,-784.5 141.5,-784.5 141.5,-747.5 0.5,-747.5"/>
<text text-anchor="start" x="11.5" y="-762.3" font-family="Helvetica Neue" font-size="14.00" fill="#333333">id (bigint)</text>
<polygon fill="#ffffff" stroke="transparent" points="0.5,-710.5 0.5,-747.5 141.5,-747.5 141.5,-710.5 0.5,-710.5"/>
<polygon fill="none" stroke="black" points="0.5,-710.5 0.5,-747.5 141.5,-747.5 141.5,-710.5 0.5,-710.5"/>
<text text-anchor="start" x="11.5" y="-725.3" font-family="Helvetica Neue" font-size="14.00" fill="#333333">body (text)</text>
<polygon fill="#ffffff" stroke="transparent" points="0.5,-673.5 0.5,-710.5 141.5,-710.5 141.5,-673.5 0.5,-673.5"/>
<polygon fill="none" stroke="black" points="0.5,-673.5 0.5,-710.5 141.5,-710.5 141.5,-673.5 0.5,-673.5"/>
<text text-anchor="start" x="11.5" y="-688.3" font-family="Helvetica Neue" font-size="14.00" fill="#333333">post_id (bigint)</text>
<polygon fill="#ffffff" stroke="transparent" points="0.5,-636.5 0.5,-673.5 141.5,-673.5 141.5,-636.5 0.5,-636.5"/>
<polygon fill="none" stroke="black" points="0.5,-636.5 0.5,-673.5 141.5,-673.5 141.5,-636.5 0.5,-636.5"/>
<text text-anchor="start" x="11.5" y="-651.3" font-family="Helvetica Neue" font-size="14.00" fill="#333333">user_id (bigint)</text>
<polygon fill="#ffffff" stroke="transparent" points="0.5,-599.5 0.5,-636.5 141.5,-636.5 141.5,-599.5 0.5,-599.5"/>
<polygon fill="none" stroke="black" points="0.5,-599.5 0.5,-636.5 141.5,-636.5 141.5,-599.5 0.5,-599.5"/>
<text text-anchor="start" x="11.5" y="-614.3" font-family="Helvetica Neue" font-size="14.00" fill="#333333">created_at (datetime)</text>
<polygon fill="#ffffff" stroke="transparent" points="0.5,-562.5 0.5,-599.5 141.5,-599.5 141.5,-562.5 0.5,-562.5"/>
<polygon fill="none" stroke="black" points="0.5,-562.5 0.5,-599.5 141.5,-599.5 141.5,-562.5 0.5,-562.5"/>
<text text-anchor="start" x="11.5" y="-577.3" font-family="Helvetica Neue" font-size="14.00" fill="#333333">updated_at (datetime)</text>
</g>
<!-- appmodelsuser -->
<g id="node2" class="node">
<title>appmodelsuser</title>
<polygon fill="none" stroke="black" points="456,-593 289,-593 289,-112 456,-112 456,-593"/>
<polygon fill="#d3d3d3" stroke="transparent" points="289.5,-555.5 289.5,-592.5 456.5,-592.5 456.5,-555.5 289.5,-555.5"/>
<polygon fill="none" stroke="black" points="289.5,-555.5 289.5,-592.5 456.5,-592.5 456.5,-555.5 289.5,-555.5"/>
<text text-anchor="start" x="359.5" y="-570.3" font-family="Helvetica Neue" font-size="14.00" fill="#333333">User</text>
<polygon fill="#ffffff" stroke="transparent" points="289.5,-518.5 289.5,-555.5 456.5,-555.5 456.5,-518.5 289.5,-518.5"/>
<polygon fill="none" stroke="black" points="289.5,-518.5 289.5,-555.5 456.5,-555.5 456.5,-518.5 289.5,-518.5"/>
<text text-anchor="start" x="300.5" y="-533.3" font-family="Helvetica Neue" font-size="14.00" fill="#333333">id (bigint)</text>
<polygon fill="#ffffff" stroke="transparent" points="289.5,-481.5 289.5,-518.5 456.5,-518.5 456.5,-481.5 289.5,-481.5"/>
<polygon fill="none" stroke="black" points="289.5,-481.5 289.5,-518.5 456.5,-518.5 456.5,-481.5 289.5,-481.5"/>
<text text-anchor="start" x="300.5" y="-496.3" font-family="Helvetica Neue" font-size="14.00" fill="#333333">name (string)</text>
<polygon fill="#ffffff" stroke="transparent" points="289.5,-444.5 289.5,-481.5 456.5,-481.5 456.5,-444.5 289.5,-444.5"/>
<polygon fill="none" stroke="black" points="289.5,-444.5 289.5,-481.5 456.5,-481.5 456.5,-444.5 289.5,-444.5"/>
<text text-anchor="start" x="300.5" y="-459.3" font-family="Helvetica Neue" font-size="14.00" fill="#333333">email (string)</text>
<polygon fill="#ffffff" stroke="transparent" points="289.5,-407.5 289.5,-444.5 456.5,-444.5 456.5,-407.5 289.5,-407.5"/>
<polygon fill="none" stroke="black" points="289.5,-407.5 289.5,-444.5 456.5,-444.5 456.5,-407.5 289.5,-407.5"/>
<text text-anchor="start" x="300.5" y="-422.3" font-family="Helvetica Neue" font-size="14.00" fill="#333333">email_verified_at (datetime)</text>
<polygon fill="#ffffff" stroke="transparent" points="289.5,-370.5 289.5,-407.5 456.5,-407.5 456.5,-370.5 289.5,-370.5"/>
<polygon fill="none" stroke="black" points="289.5,-370.5 289.5,-407.5 456.5,-407.5 456.5,-370.5 289.5,-370.5"/>
<text text-anchor="start" x="300.5" y="-385.3" font-family="Helvetica Neue" font-size="14.00" fill="#333333">password (string)</text>
<polygon fill="#ffffff" stroke="transparent" points="289.5,-333.5 289.5,-370.5 456.5,-370.5 456.5,-333.5 289.5,-333.5"/>
<polygon fill="none" stroke="black" points="289.5,-333.5 289.5,-370.5 456.5,-370.5 456.5,-333.5 289.5,-333.5"/>
<text text-anchor="start" x="300.5" y="-348.3" font-family="Helvetica Neue" font-size="14.00" fill="#333333">remember_token (string)</text>
<polygon fill="#ffffff" stroke="transparent" points="289.5,-296.5 289.5,-333.5 456.5,-333.5 456.5,-296.5 289.5,-296.5"/>
<polygon fill="none" stroke="black" points="289.5,-296.5 289.5,-333.5 456.5,-333.5 456.5,-296.5 289.5,-296.5"/>
<text text-anchor="start" x="300.5" y="-311.3" font-family="Helvetica Neue" font-size="14.00" fill="#333333">created_at (datetime)</text>
<polygon fill="#ffffff" stroke="transparent" points="289.5,-259.5 289.5,-296.5 456.5,-296.5 456.5,-259.5 289.5,-259.5"/>
<polygon fill="none" stroke="black" points="289.5,-259.5 289.5,-296.5 456.5,-296.5 456.5,-259.5 289.5,-259.5"/>
<text text-anchor="start" x="300.5" y="-274.3" font-family="Helvetica Neue" font-size="14.00" fill="#333333">updated_at (datetime)</text>
<polygon fill="#ffffff" stroke="transparent" points="289.5,-222.5 289.5,-259.5 456.5,-259.5 456.5,-222.5 289.5,-222.5"/>
<polygon fill="none" stroke="black" points="289.5,-222.5 289.5,-259.5 456.5,-259.5 456.5,-222.5 289.5,-222.5"/>
<text text-anchor="start" x="300.5" y="-237.3" font-family="Helvetica Neue" font-size="14.00" fill="#333333">img (string)</text>
<polygon fill="#ffffff" stroke="transparent" points="289.5,-185.5 289.5,-222.5 456.5,-222.5 456.5,-185.5 289.5,-185.5"/>
<polygon fill="none" stroke="black" points="289.5,-185.5 289.5,-222.5 456.5,-222.5 456.5,-185.5 289.5,-185.5"/>
<text text-anchor="start" x="300.5" y="-200.3" font-family="Helvetica Neue" font-size="14.00" fill="#333333">role (string)</text>
<polygon fill="#ffffff" stroke="transparent" points="289.5,-148.5 289.5,-185.5 456.5,-185.5 456.5,-148.5 289.5,-148.5"/>
<polygon fill="none" stroke="black" points="289.5,-148.5 289.5,-185.5 456.5,-185.5 456.5,-148.5 289.5,-148.5"/>
<text text-anchor="start" x="300.5" y="-163.3" font-family="Helvetica Neue" font-size="14.00" fill="#333333">active (boolean)</text>
<polygon fill="#ffffff" stroke="transparent" points="289.5,-111.5 289.5,-148.5 456.5,-148.5 456.5,-111.5 289.5,-111.5"/>
<polygon fill="none" stroke="black" points="289.5,-111.5 289.5,-148.5 456.5,-148.5 456.5,-111.5 289.5,-111.5"/>
<text text-anchor="start" x="300.5" y="-126.3" font-family="Helvetica Neue" font-size="14.00" fill="#333333">division_id (bigint)</text>
</g>
<!-- appmodelscomment&#45;&gt;appmodelsuser -->
<g id="edge1" class="edge">
<title>appmodelscomment:user_id&#45;&gt;appmodelsuser:id</title>
<path fill="none" stroke="#f77f00" stroke-width="1.8" d="M148.96,-648.21C176.22,-626.66 265.24,-556.28 285.07,-540.61"/>
<polygon fill="#f77f00" stroke="#f77f00" stroke-width="1.8" points="148.84,-648.3 138.21,-650.97 144.92,-651.4 141,-654.5 141,-654.5 141,-654.5 144.92,-651.4 143.79,-658.03 148.84,-648.3 148.84,-648.3"/>
<polygon fill="#f77f00" stroke="#f77f00" stroke-width="1.8" points="285.11,-534.2 291.32,-542.04 289.75,-543.28 283.55,-535.44 285.11,-534.2"/>
<polyline fill="none" stroke="#f77f00" stroke-width="1.8" points="289,-537.5 285.08,-540.6 "/>
<text text-anchor="middle" x="215" y="-599.3" font-family="Helvetica Neue" font-size="14.00"> </text>
<text text-anchor="middle" x="258.01" y="-598.21" font-family="Helvetica Neue" font-size="14.00">BelongsTouser</text>
</g>
<!-- appmodelspost -->
<g id="node3" class="node">
<title>appmodelspost</title>
<polygon fill="none" stroke="black" points="745,-793 604,-793 604,-460 745,-460 745,-793"/>
<polygon fill="#d3d3d3" stroke="transparent" points="604.5,-755.5 604.5,-792.5 745.5,-792.5 745.5,-755.5 604.5,-755.5"/>
<polygon fill="none" stroke="black" points="604.5,-755.5 604.5,-792.5 745.5,-792.5 745.5,-755.5 604.5,-755.5"/>
<text text-anchor="start" x="662" y="-770.3" font-family="Helvetica Neue" font-size="14.00" fill="#333333">Post</text>
<polygon fill="#ffffff" stroke="transparent" points="604.5,-718.5 604.5,-755.5 745.5,-755.5 745.5,-718.5 604.5,-718.5"/>
<polygon fill="none" stroke="black" points="604.5,-718.5 604.5,-755.5 745.5,-755.5 745.5,-718.5 604.5,-718.5"/>
<text text-anchor="start" x="615.5" y="-733.3" font-family="Helvetica Neue" font-size="14.00" fill="#333333">id (bigint)</text>
<polygon fill="#ffffff" stroke="transparent" points="604.5,-681.5 604.5,-718.5 745.5,-718.5 745.5,-681.5 604.5,-681.5"/>
<polygon fill="none" stroke="black" points="604.5,-681.5 604.5,-718.5 745.5,-718.5 745.5,-681.5 604.5,-681.5"/>
<text text-anchor="start" x="615.5" y="-696.3" font-family="Helvetica Neue" font-size="14.00" fill="#333333">work_date (date)</text>
<polygon fill="#ffffff" stroke="transparent" points="604.5,-644.5 604.5,-681.5 745.5,-681.5 745.5,-644.5 604.5,-644.5"/>
<polygon fill="none" stroke="black" points="604.5,-644.5 604.5,-681.5 745.5,-681.5 745.5,-644.5 604.5,-644.5"/>
<text text-anchor="start" x="615.5" y="-659.3" font-family="Helvetica Neue" font-size="14.00" fill="#333333">start_time (time)</text>
<polygon fill="#ffffff" stroke="transparent" points="604.5,-607.5 604.5,-644.5 745.5,-644.5 745.5,-607.5 604.5,-607.5"/>
<polygon fill="none" stroke="black" points="604.5,-607.5 604.5,-644.5 745.5,-644.5 745.5,-607.5 604.5,-607.5"/>
<text text-anchor="start" x="615.5" y="-622.3" font-family="Helvetica Neue" font-size="14.00" fill="#333333">finish_time (time)</text>
<polygon fill="#ffffff" stroke="transparent" points="604.5,-570.5 604.5,-607.5 745.5,-607.5 745.5,-570.5 604.5,-570.5"/>
<polygon fill="none" stroke="black" points="604.5,-570.5 604.5,-607.5 745.5,-607.5 745.5,-570.5 604.5,-570.5"/>
<text text-anchor="start" x="615.5" y="-585.3" font-family="Helvetica Neue" font-size="14.00" fill="#333333">body (text)</text>
<polygon fill="#ffffff" stroke="transparent" points="604.5,-533.5 604.5,-570.5 745.5,-570.5 745.5,-533.5 604.5,-533.5"/>
<polygon fill="none" stroke="black" points="604.5,-533.5 604.5,-570.5 745.5,-570.5 745.5,-533.5 604.5,-533.5"/>
<text text-anchor="start" x="615.5" y="-548.3" font-family="Helvetica Neue" font-size="14.00" fill="#333333">user_id (bigint)</text>
<polygon fill="#ffffff" stroke="transparent" points="604.5,-496.5 604.5,-533.5 745.5,-533.5 745.5,-496.5 604.5,-496.5"/>
<polygon fill="none" stroke="black" points="604.5,-496.5 604.5,-533.5 745.5,-533.5 745.5,-496.5 604.5,-496.5"/>
<text text-anchor="start" x="615.5" y="-511.3" font-family="Helvetica Neue" font-size="14.00" fill="#333333">created_at (datetime)</text>
<polygon fill="#ffffff" stroke="transparent" points="604.5,-459.5 604.5,-496.5 745.5,-496.5 745.5,-459.5 604.5,-459.5"/>
<polygon fill="none" stroke="black" points="604.5,-459.5 604.5,-496.5 745.5,-496.5 745.5,-459.5 604.5,-459.5"/>
<text text-anchor="start" x="615.5" y="-474.3" font-family="Helvetica Neue" font-size="14.00" fill="#333333">updated_at (datetime)</text>
</g>
<!-- appmodelsuser&#45;&gt;appmodelspost -->
<g id="edge6" class="edge">
<title>appmodelsuser:id&#45;&gt;appmodelspost:user_id</title>
<path fill="none" stroke="#fcbf49" stroke-width="1.8" d="M456,-537.5C456,-537.5 528,-511.5 528,-511.5 528,-511.5 532,-511.5 532,-511.5 532,-511.5 575.95,-535.91 595.17,-546.6"/>
<polygon fill="#fcbf49" stroke="#fcbf49" stroke-width="1.8" points="595.26,-546.64 601.81,-555.43 599.63,-549.07 604,-551.5 604,-551.5 604,-551.5 599.63,-549.07 606.19,-547.57 595.26,-546.64 595.26,-546.64"/>
<text text-anchor="middle" x="530" y="-515.3" font-family="Helvetica Neue" font-size="14.00"> </text>
<text text-anchor="middle" x="570.37" y="-500.35" font-family="Helvetica Neue" font-size="14.00">HasManyposts</text>
</g>
<!-- appmodelsdivision -->
<g id="node5" class="node">
<title>appmodelsdivision</title>
<polygon fill="none" stroke="black" points="745,-185 604,-185 604,0 745,0 745,-185"/>
<polygon fill="#d3d3d3" stroke="transparent" points="604.5,-147.5 604.5,-184.5 745.5,-184.5 745.5,-147.5 604.5,-147.5"/>
<polygon fill="none" stroke="black" points="604.5,-147.5 604.5,-184.5 745.5,-184.5 745.5,-147.5 604.5,-147.5"/>
<text text-anchor="start" x="654.5" y="-162.3" font-family="Helvetica Neue" font-size="14.00" fill="#333333">Division</text>
<polygon fill="#ffffff" stroke="transparent" points="604.5,-110.5 604.5,-147.5 745.5,-147.5 745.5,-110.5 604.5,-110.5"/>
<polygon fill="none" stroke="black" points="604.5,-110.5 604.5,-147.5 745.5,-147.5 745.5,-110.5 604.5,-110.5"/>
<text text-anchor="start" x="615.5" y="-125.3" font-family="Helvetica Neue" font-size="14.00" fill="#333333">id (bigint)</text>
<polygon fill="#ffffff" stroke="transparent" points="604.5,-73.5 604.5,-110.5 745.5,-110.5 745.5,-73.5 604.5,-73.5"/>
<polygon fill="none" stroke="black" points="604.5,-73.5 604.5,-110.5 745.5,-110.5 745.5,-73.5 604.5,-73.5"/>
<text text-anchor="start" x="615.5" y="-88.3" font-family="Helvetica Neue" font-size="14.00" fill="#333333">name (string)</text>
<polygon fill="#ffffff" stroke="transparent" points="604.5,-36.5 604.5,-73.5 745.5,-73.5 745.5,-36.5 604.5,-36.5"/>
<polygon fill="none" stroke="black" points="604.5,-36.5 604.5,-73.5 745.5,-73.5 745.5,-36.5 604.5,-36.5"/>
<text text-anchor="start" x="615.5" y="-51.3" font-family="Helvetica Neue" font-size="14.00" fill="#333333">created_at (datetime)</text>
<polygon fill="#ffffff" stroke="transparent" points="604.5,0.5 604.5,-36.5 745.5,-36.5 745.5,0.5 604.5,0.5"/>
<polygon fill="none" stroke="black" points="604.5,0.5 604.5,-36.5 745.5,-36.5 745.5,0.5 604.5,0.5"/>
<text text-anchor="start" x="615.5" y="-14.3" font-family="Helvetica Neue" font-size="14.00" fill="#333333">updated_at (datetime)</text>
</g>
<!-- appmodelsuser&#45;&gt;appmodelsdivision -->
<g id="edge5" class="edge">
<title>appmodelsuser:division_id&#45;&gt;appmodelsdivision:id</title>
<path fill="none" stroke="#f77f00" stroke-width="1.8" d="M466.17,-129.5C495.17,-129.5 577.52,-129.5 598.89,-129.5"/>
<polygon fill="#f77f00" stroke="#f77f00" stroke-width="1.8" points="466,-129.5 456,-125 461,-129.5 456,-129.5 456,-129.5 456,-129.5 461,-129.5 456,-134 466,-129.5 466,-129.5"/>
<polygon fill="#f77f00" stroke="#f77f00" stroke-width="1.8" points="603,-124.5 603,-134.5 601,-134.5 601,-124.5 603,-124.5"/>
<polyline fill="none" stroke="#f77f00" stroke-width="1.8" points="604,-129.5 599,-129.5 "/>
<text text-anchor="middle" x="530" y="-133.3" font-family="Helvetica Neue" font-size="14.00"> </text>
<text text-anchor="middle" x="484.03" y="-118.3" font-family="Helvetica Neue" font-size="14.00">BelongsTodivision</text>
</g>
<!-- appmodelspost&#45;&gt;appmodelscomment -->
<g id="edge3" class="edge">
<title>appmodelspost:id&#45;&gt;appmodelscomment:post_id</title>
<path fill="none" stroke="#fcbf49" stroke-width="1.8" d="M604,-737.5C604,-737.5 218.81,-699.23 151.1,-692.5"/>
<polygon fill="#fcbf49" stroke="#fcbf49" stroke-width="1.8" points="150.95,-692.49 141.44,-687.02 145.98,-691.99 141,-691.5 141,-691.5 141,-691.5 145.98,-691.99 140.56,-695.98 150.95,-692.49 150.95,-692.49"/>
<text text-anchor="middle" x="372.5" y="-726.3" font-family="Helvetica Neue" font-size="14.00"> </text>
<text text-anchor="middle" x="320.55" y="-703.8" font-family="Helvetica Neue" font-size="14.00">HasManycomments</text>
</g>
<!-- appmodelspost&#45;&gt;appmodelsuser -->
<g id="edge4" class="edge">
<title>appmodelspost:user_id&#45;&gt;appmodelsuser:id</title>
<path fill="none" stroke="#f77f00" stroke-width="1.8" d="M593.93,-550.55C565.09,-547.82 482.89,-540.04 461.27,-538"/>
<polygon fill="#f77f00" stroke="#f77f00" stroke-width="1.8" points="594.04,-550.56 603.58,-555.98 599.02,-551.03 604,-551.5 604,-551.5 604,-551.5 599.02,-551.03 604.42,-547.02 594.04,-550.56 594.04,-550.56"/>
<polygon fill="#f77f00" stroke="#f77f00" stroke-width="1.8" points="456.52,-542.57 457.47,-532.62 459.46,-532.8 458.52,-542.76 456.52,-542.57"/>
<polyline fill="none" stroke="#f77f00" stroke-width="1.8" points="456,-537.5 460.98,-537.97 "/>
<text text-anchor="middle" x="530" y="-548.3" font-family="Helvetica Neue" font-size="14.00"> </text>
<text text-anchor="middle" x="568.6" y="-533.07" font-family="Helvetica Neue" font-size="14.00">BelongsTouser</text>
</g>
<!-- appmodelswork -->
<g id="node4" class="node">
<title>appmodelswork</title>
<polygon fill="none" stroke="black" points="1034,-942 893,-942 893,-609 1034,-609 1034,-942"/>
<polygon fill="#d3d3d3" stroke="transparent" points="893.5,-904.5 893.5,-941.5 1034.5,-941.5 1034.5,-904.5 893.5,-904.5"/>
<polygon fill="none" stroke="black" points="893.5,-904.5 893.5,-941.5 1034.5,-941.5 1034.5,-904.5 893.5,-904.5"/>
<text text-anchor="start" x="949" y="-919.3" font-family="Helvetica Neue" font-size="14.00" fill="#333333">Work</text>
<polygon fill="#ffffff" stroke="transparent" points="893.5,-867.5 893.5,-904.5 1034.5,-904.5 1034.5,-867.5 893.5,-867.5"/>
<polygon fill="none" stroke="black" points="893.5,-867.5 893.5,-904.5 1034.5,-904.5 1034.5,-867.5 893.5,-867.5"/>
<text text-anchor="start" x="904.5" y="-882.3" font-family="Helvetica Neue" font-size="14.00" fill="#333333">id (bigint)</text>
<polygon fill="#ffffff" stroke="transparent" points="893.5,-830.5 893.5,-867.5 1034.5,-867.5 1034.5,-830.5 893.5,-830.5"/>
<polygon fill="none" stroke="black" points="893.5,-830.5 893.5,-867.5 1034.5,-867.5 1034.5,-830.5 893.5,-830.5"/>
<text text-anchor="start" x="904.5" y="-845.3" font-family="Helvetica Neue" font-size="14.00" fill="#333333">work_time (time)</text>
<polygon fill="#ffffff" stroke="transparent" points="893.5,-793.5 893.5,-830.5 1034.5,-830.5 1034.5,-793.5 893.5,-793.5"/>
<polygon fill="none" stroke="black" points="893.5,-793.5 893.5,-830.5 1034.5,-830.5 1034.5,-793.5 893.5,-793.5"/>
<text text-anchor="start" x="904.5" y="-808.3" font-family="Helvetica Neue" font-size="14.00" fill="#333333">progress (integer)</text>
<polygon fill="#ffffff" stroke="transparent" points="893.5,-756.5 893.5,-793.5 1034.5,-793.5 1034.5,-756.5 893.5,-756.5"/>
<polygon fill="none" stroke="black" points="893.5,-756.5 893.5,-793.5 1034.5,-793.5 1034.5,-756.5 893.5,-756.5"/>
<text text-anchor="start" x="904.5" y="-771.3" font-family="Helvetica Neue" font-size="14.00" fill="#333333">limit (date)</text>
<polygon fill="#ffffff" stroke="transparent" points="893.5,-719.5 893.5,-756.5 1034.5,-756.5 1034.5,-719.5 893.5,-719.5"/>
<polygon fill="none" stroke="black" points="893.5,-719.5 893.5,-756.5 1034.5,-756.5 1034.5,-719.5 893.5,-719.5"/>
<text text-anchor="start" x="904.5" y="-734.3" font-family="Helvetica Neue" font-size="14.00" fill="#333333">post_id (bigint)</text>
<polygon fill="#ffffff" stroke="transparent" points="893.5,-682.5 893.5,-719.5 1034.5,-719.5 1034.5,-682.5 893.5,-682.5"/>
<polygon fill="none" stroke="black" points="893.5,-682.5 893.5,-719.5 1034.5,-719.5 1034.5,-682.5 893.5,-682.5"/>
<text text-anchor="start" x="904.5" y="-697.3" font-family="Helvetica Neue" font-size="14.00" fill="#333333">project_id (bigint)</text>
<polygon fill="#ffffff" stroke="transparent" points="893.5,-645.5 893.5,-682.5 1034.5,-682.5 1034.5,-645.5 893.5,-645.5"/>
<polygon fill="none" stroke="black" points="893.5,-645.5 893.5,-682.5 1034.5,-682.5 1034.5,-645.5 893.5,-645.5"/>
<text text-anchor="start" x="904.5" y="-660.3" font-family="Helvetica Neue" font-size="14.00" fill="#333333">created_at (datetime)</text>
<polygon fill="#ffffff" stroke="transparent" points="893.5,-608.5 893.5,-645.5 1034.5,-645.5 1034.5,-608.5 893.5,-608.5"/>
<polygon fill="none" stroke="black" points="893.5,-608.5 893.5,-645.5 1034.5,-645.5 1034.5,-608.5 893.5,-608.5"/>
<text text-anchor="start" x="904.5" y="-623.3" font-family="Helvetica Neue" font-size="14.00" fill="#333333">updated_at (datetime)</text>
</g>
<!-- appmodelspost&#45;&gt;appmodelswork -->
<g id="edge2" class="edge">
<title>appmodelspost:id&#45;&gt;appmodelswork:post_id</title>
<path fill="none" stroke="#fcbf49" stroke-width="1.8" d="M745,-737.5C745,-737.5 849.39,-737.5 882.83,-737.5"/>
<polygon fill="#fcbf49" stroke="#fcbf49" stroke-width="1.8" points="883,-737.5 893,-742 888,-737.5 893,-737.5 893,-737.5 893,-737.5 888,-737.5 893,-733 883,-737.5 883,-737.5"/>
<text text-anchor="middle" x="819" y="-741.3" font-family="Helvetica Neue" font-size="14.00"> </text>
<text text-anchor="middle" x="857.91" y="-726.3" font-family="Helvetica Neue" font-size="14.00">HasManyworks</text>
</g>
<!-- appmodelsproject -->
<g id="node6" class="node">
<title>appmodelsproject</title>
<polygon fill="none" stroke="black" points="1323,-755.5 1182,-755.5 1182,-533.5 1323,-533.5 1323,-755.5"/>
<polygon fill="#d3d3d3" stroke="transparent" points="1182.5,-718.5 1182.5,-755.5 1323.5,-755.5 1323.5,-718.5 1182.5,-718.5"/>
<polygon fill="none" stroke="black" points="1182.5,-718.5 1182.5,-755.5 1323.5,-755.5 1323.5,-718.5 1182.5,-718.5"/>
<text text-anchor="start" x="1234" y="-733.3" font-family="Helvetica Neue" font-size="14.00" fill="#333333">Project</text>
<polygon fill="#ffffff" stroke="transparent" points="1182.5,-681.5 1182.5,-718.5 1323.5,-718.5 1323.5,-681.5 1182.5,-681.5"/>
<polygon fill="none" stroke="black" points="1182.5,-681.5 1182.5,-718.5 1323.5,-718.5 1323.5,-681.5 1182.5,-681.5"/>
<text text-anchor="start" x="1193.5" y="-696.3" font-family="Helvetica Neue" font-size="14.00" fill="#333333">id (bigint)</text>
<polygon fill="#ffffff" stroke="transparent" points="1182.5,-644.5 1182.5,-681.5 1323.5,-681.5 1323.5,-644.5 1182.5,-644.5"/>
<polygon fill="none" stroke="black" points="1182.5,-644.5 1182.5,-681.5 1323.5,-681.5 1323.5,-644.5 1182.5,-644.5"/>
<text text-anchor="start" x="1193.5" y="-659.3" font-family="Helvetica Neue" font-size="14.00" fill="#333333">name (string)</text>
<polygon fill="#ffffff" stroke="transparent" points="1182.5,-607.5 1182.5,-644.5 1323.5,-644.5 1323.5,-607.5 1182.5,-607.5"/>
<polygon fill="none" stroke="black" points="1182.5,-607.5 1182.5,-644.5 1323.5,-644.5 1323.5,-607.5 1182.5,-607.5"/>
<text text-anchor="start" x="1193.5" y="-622.3" font-family="Helvetica Neue" font-size="14.00" fill="#333333">created_at (datetime)</text>
<polygon fill="#ffffff" stroke="transparent" points="1182.5,-570.5 1182.5,-607.5 1323.5,-607.5 1323.5,-570.5 1182.5,-570.5"/>
<polygon fill="none" stroke="black" points="1182.5,-570.5 1182.5,-607.5 1323.5,-607.5 1323.5,-570.5 1182.5,-570.5"/>
<text text-anchor="start" x="1193.5" y="-585.3" font-family="Helvetica Neue" font-size="14.00" fill="#333333">updated_at (datetime)</text>
<polygon fill="#ffffff" stroke="transparent" points="1182.5,-533.5 1182.5,-570.5 1323.5,-570.5 1323.5,-533.5 1182.5,-533.5"/>
<polygon fill="none" stroke="black" points="1182.5,-533.5 1182.5,-570.5 1323.5,-570.5 1323.5,-533.5 1182.5,-533.5"/>
<text text-anchor="start" x="1193.5" y="-548.3" font-family="Helvetica Neue" font-size="14.00" fill="#333333">sort (integer)</text>
</g>
<!-- appmodelswork&#45;&gt;appmodelsproject -->
<g id="edge7" class="edge">
<title>appmodelswork:project_id&#45;&gt;appmodelsproject:id</title>
<path fill="none" stroke="#f77f00" stroke-width="1.8" d="M1044.17,-700.5C1073.17,-700.5 1155.52,-700.5 1176.89,-700.5"/>
<polygon fill="#f77f00" stroke="#f77f00" stroke-width="1.8" points="1044,-700.5 1034,-696 1039,-700.5 1034,-700.5 1034,-700.5 1034,-700.5 1039,-700.5 1034,-705 1044,-700.5 1044,-700.5"/>
<polygon fill="#f77f00" stroke="#f77f00" stroke-width="1.8" points="1181,-695.5 1181,-705.5 1179,-705.5 1179,-695.5 1181,-695.5"/>
<polyline fill="none" stroke="#f77f00" stroke-width="1.8" points="1182,-700.5 1177,-700.5 "/>
<text text-anchor="middle" x="1108" y="-704.3" font-family="Helvetica Neue" font-size="14.00"> </text>
<text text-anchor="middle" x="1063.03" y="-689.3" font-family="Helvetica Neue" font-size="14.00">BelongsToproject</text>
</g>
</g>
</svg>
