<?xml version="1.0" encoding="UTF-8"?>
<!DOCTYPE svg PUBLIC "-//W3C//DTD SVG 1.1//EN" "http://www.w3.org/Graphics/SVG/1.1/DTD/svg11.dtd">
<svg version="1.1" xmlns="http://www.w3.org/2000/svg" xmlns:xlink="http://www.w3.org/1999/xlink" x="0" y="0" width="128" height="128" viewBox="0, 0, 128, 128">
  <g id="レイヤー_1">
    <g>
      <path d="M64,126.735 C29.353,126.735 1.265,98.647 1.265,64 C1.265,29.353 29.353,1.265 64,1.265 C98.647,1.265 126.735,29.353 126.735,64 C126.735,98.647 98.647,126.735 64,126.735 z" fill="#FFFFFF"/>
      <path d="M55.552,62.148 L67.621,74.217 L88.501,53.336 L97.376,62.212 L76.496,83.092 L89.395,95.991 L114.425,70.832 C118.193,67.065 118.193,60.935 114.425,57.168 L87.479,30.221 L55.552,62.148 z" fill="#666666"/>
      <path d="M34.544,63.872 L77.837,20.58 L72.793,15.535 C69.025,11.768 62.895,11.768 59.128,15.535 L17.496,57.168 C13.728,60.935 13.728,67.065 17.496,70.832 L59.128,112.465 C62.895,116.232 69.025,116.232 72.793,112.465 L77.965,107.293 L34.544,63.872 z" fill="#666666"/>
    </g>
  </g>
</svg>
